@startuml

title US 003 - As an Administrator, I want to create a new Geographic Area
skinparam titleBorderRoundCorner 10
skinparam titleBorderThickness 2
skinparam titleBorderColor indianred
skinparam titleBackgroundColor Snow
skinparam FontName quicksand
skinparam titleFontSize 10
skinparam roundcorner 10


skinparam class {
 BorderColor indianred
 BackgroundColor indianred
 BackgroundColor Snow
  roundcorner 10
  ArrowFontName Verdana
  ArrowColor indianred
  ArrowFontColor darkslategrey
  FontSize 12
}



class GASettingsWebController
class GeographicAreaRepository
class GeographicAreaMapper
class GeographicAreaCrudRepository
class GeographicAreaDTO
class GeographicArea

GASettingsWebController -- GeographicAreaRepository : >
GASettingsWebController -- GeographicAreaDTO : >

GeographicAreaRepository -- GeographicAreaCrudRepository : >
GeographicAreaRepository -- GeographicArea : >
GeographicAreaRepository -- GeographicAreaMapper : >
GeographicAreaMapper -- GeographicAreaDTO : >



class GASettingsWebController {
createGeoArea(@RequestBody GeographicAreaDTO)
}

class GeographicAreaMapper{
dtoToObject(GeographicAreaDTO)
}

class GeographicAreaRepository {
addAndPersistDTO(GeographicAreaDTO)
}


class GeographicAreaCrudRepository{
save(House)
}

@enduml