@startuml

title US 011 - As as Administrator I want to remove a sensor so that it will no longer be used.
skinparam titleBorderRoundCorner 10
skinparam titleBorderThickness 2
skinparam titleBorderColor indianred
skinparam titleBackgroundColor Snow
skinparam FontName quicksand
skinparam titleFontSize 10
skinparam roundcorner 10


skinparam class {
  BorderColor indianred
  BackgroundColor indianred
  BackgroundColor Snow
   roundcorner 10
   ArrowFontName Verdana
   ArrowColor indianred
   ArrowFontColor darkslategrey
   FontSize 12
}

class SensorSettingsWebController
class GeographicAreaRepository
class GeographicAreaDTO
class GeographicAreaMapper

SensorSettingsWebController -- GeographicAreaRepository : >
GeographicAreaRepository -- GeographicAreaDTO : >
GeographicAreaRepository -- GeographicAreaMapper : >



class SensorSettingsWebController {
removeAreaSensor(@PathVariable long, @PathVariable String)
}

class GeographicAreaRepository{
getDTOById(long)
removeSensorDTO(GeographicAreaDTO, String)
updateAreaDTO(GeographicAreaDTO)
}

class GeographicAreaDTO{
removeSensor(String)
}


class GeographicAreaMapper {
dtoToObject(GeographicAreaDTO)
}

@enduml